<?xml version="1.0" encoding="iso-8859-1"?>
<!-- Generator: Adobe Illustrator 16.0.0, SVG Export Plug-In . SVG Version: 6.00 Build 0)  -->
<!DOCTYPE svg PUBLIC "-//W3C//DTD SVG 1.1//EN" "http://www.w3.org/Graphics/SVG/1.1/DTD/svg11.dtd">
<svg version="1.1" id="Capa_1" xmlns="http://www.w3.org/2000/svg" xmlns:xlink="http://www.w3.org/1999/xlink" x="0px" y="0px"
	 width="568.013px" height="568.013px" viewBox="0 0 568.013 568.013" style="enable-background:new 0 0 568.013 568.013;"
	 xml:space="preserve">
<g>
	<g id="Layer_1_92_">
		<g>
			<path d="M526.894,42.393l-1.275-1.275c-54.824-54.825-144.074-54.825-198.899,0l-285.6,285.601
				c-54.825,54.825-54.825,144.075,0,198.9l1.275,1.274c54.825,54.825,144.075,54.825,198.9,0l285.6-285.6
				C581.719,186.468,581.719,97.218,526.894,42.393z M502.669,218.343L218.344,502.669c-42.075,42.075-109.65,42.075-151.725,0
				l-1.275-1.275c-42.075-42.075-42.075-109.649,0-151.725L349.669,65.343c42.074-42.075,109.649-42.075,151.725,0l1.275,1.275
				C544.743,108.693,544.743,176.268,502.669,218.343z"/>
			<path d="M458.044,187.743c-5.101-5.1-14.025-5.1-19.125,0l-7.65,7.65l-22.95-22.95l6.375-6.375l-11.475-11.475l-6.375,6.375
				l-22.95-22.95l7.65-7.65c5.1-5.1,5.1-14.025,0-19.125l-16.575-16.575c-5.101-5.1-14.025-5.1-19.125,0l-40.8,40.8
				c-5.101,5.1-5.101,14.025,0,19.125l16.574,16.575c5.101,5.1,14.025,5.1,19.125,0l8.926-8.925l22.949,22.95l-6.375,6.375
				l11.476,11.475l6.375-6.375l22.95,22.95l-7.65,7.65c-5.1,5.1-5.1,14.025,0,19.125l16.575,16.575c5.1,5.1,14.024,5.1,19.125,0
				l40.8-40.8c5.1-5.1,5.1-14.025,0-19.125L458.044,187.743z"/>
			<path d="M246.394,399.394c-5.1-5.1-14.025-5.1-19.125,0l-8.925,8.925l-22.95-24.225l6.375-6.375l-11.475-11.475l-6.375,6.375
				l-22.95-22.95l8.925-8.925c5.1-5.101,5.1-14.025,0-19.125l-16.575-16.575c-5.1-5.101-14.025-5.101-19.125,0l-40.8,40.8
				c-5.1,5.1-5.1,14.025,0,19.125l16.575,16.575c5.1,5.1,14.025,5.1,19.125,0l7.65-7.65l22.95,22.95l-6.375,6.375l11.475,11.475
				l6.375-6.375l22.95,22.95l-7.65,7.65c-5.1,5.1-5.1,14.024,0,19.125l16.575,16.575c5.1,5.1,14.025,5.1,19.125,0l40.8-40.801
				c5.1-5.1,5.1-14.024,0-19.125L246.394,399.394z"/>
		</g>
	</g>
</g>
<g>
</g>
<g>
</g>
<g>
</g>
<g>
</g>
<g>
</g>
<g>
</g>
<g>
</g>
<g>
</g>
<g>
</g>
<g>
</g>
<g>
</g>
<g>
</g>
<g>
</g>
<g>
</g>
<g>
</g>
</svg>
