<svg width="554" height="479" viewBox="0 0 554 479" fill="none" xmlns="http://www.w3.org/2000/svg">
<g clip-path="url(#clip0_525_7616)">
<g opacity="0.8">
<path opacity="0.8" d="M284.9 161.964C338.151 161.964 381.319 128.488 381.319 87.1929C381.319 45.898 338.151 12.4219 284.9 12.4219C231.649 12.4219 188.48 45.898 188.48 87.1929C188.48 128.488 231.649 161.964 284.9 161.964Z" fill="url(#paint0_linear_525_7616)"/>
</g>
<path d="M284.9 160.304C336.969 160.304 379.18 127.571 379.18 87.1934C379.18 46.8156 336.969 14.083 284.9 14.083C232.831 14.083 190.62 46.8156 190.62 87.1934C190.62 127.571 232.831 160.304 284.9 160.304Z" fill="#2A7CC7"/>
<path opacity="0.1" d="M205.861 95.3192C205.861 54.9417 248.066 22.2088 300.134 22.2088C316.299 22.1197 332.304 25.4267 347.113 31.916C330.542 20.7128 308.863 13.9053 285.137 13.9053C233.069 13.9053 190.857 46.6382 190.857 87.0156C190.857 114.127 209.89 137.792 238.165 150.419C218.369 137.015 205.861 117.304 205.861 95.3192Z" fill="white"/>
<path opacity="0.2" d="M284.9 116.578L389.417 297.792L493.934 479H284.9H75.866L180.383 297.792L284.9 116.578Z" fill="#2A7CC7"/>
<g opacity="0.3">
<path opacity="0.3" d="M309.699 373.144L317.817 349.031C320.608 340.633 320.63 331.56 317.881 323.149C315.131 314.738 309.754 307.434 302.543 302.314L302.609 302.274C299.416 300.024 295.915 298.248 292.214 297.002L292.102 296.962L291.977 296.923C288.385 295.707 284.64 295.001 280.851 294.827C279.511 294.758 278.169 294.758 276.829 294.827C274.504 294.949 272.194 295.269 269.923 295.783C269.265 295.928 268.606 296.093 268.007 296.271C267.408 296.448 266.737 296.64 266.111 296.844C264.86 297.259 263.629 297.727 262.424 298.261C261.819 298.524 261.22 298.801 260.634 299.098C258.862 299.973 257.157 300.978 255.532 302.103C254.985 302.478 254.452 302.867 253.925 303.263C247.418 308.216 242.547 315.012 239.942 322.769L227.184 360.761C225.176 366.719 224.572 373.062 225.42 379.292C225.551 380.248 225.716 381.197 225.907 382.139C226.098 383.082 226.335 384.011 226.565 384.933C226.743 385.546 226.927 386.159 227.131 386.765C227.434 387.668 227.79 388.571 228.125 389.454C228.369 390.041 228.626 390.627 228.896 391.207C229.429 392.36 230.021 393.487 230.66 394.588C231.298 395.688 231.977 396.763 232.74 397.804C233.293 398.582 233.879 399.346 234.485 400.084C235.301 401.073 236.157 402.061 237.066 402.938C240.998 406.906 245.704 410.022 250.891 412.091L251.114 412.183C251.393 411.689 251.701 411.211 252.036 410.753C254.011 408.045 257.448 406.14 260.719 406.852C260.956 406.905 261.193 406.977 261.43 407.05C263.089 407.636 264.722 408.684 266.322 409.198C266.904 409.46 267.536 409.591 268.174 409.583C268.811 409.575 269.44 409.428 270.015 409.152C273.215 407.445 272.03 402.061 274.775 399.702C274.903 399.593 275.037 399.492 275.176 399.399C275.138 399.351 275.102 399.3 275.071 399.247C277.191 397.929 280.127 398.806 282.57 399.656C285.203 400.585 288.639 401.211 290.47 399.056C291.707 397.58 291.615 395.333 292.793 393.784C294.163 392.005 296.743 391.807 298.975 392.123L299.087 392.156C303.366 393.922 308.04 390.99 307.711 386.37C307.323 380.208 309.258 374.402 309.699 373.144Z" fill="url(#paint1_linear_525_7616)"/>
</g>
<path d="M252.78 408.723C254.702 406.087 258 404.242 261.16 404.96C264.32 405.679 267.316 408.69 270.127 407.181C273.972 405.125 271.246 397.566 277.487 397.006C278.788 396.92 280.09 397.146 281.286 397.665C283.919 398.739 288.04 399.952 290.068 397.533C291.259 396.11 291.174 393.942 292.313 392.466C293.629 390.752 296.138 390.535 298.277 390.864L298.383 390.897C302.51 392.604 307.026 389.77 306.704 385.315C306.289 379.384 308.172 373.796 308.58 372.583L316.401 349.314C319.728 339.338 318.974 328.45 314.305 319.029C309.636 309.608 301.431 302.421 291.483 299.038C281.519 295.712 270.644 296.47 261.236 301.145C251.828 305.82 244.65 314.032 241.272 323.988L228.942 360.583C225.737 370.207 226.325 380.694 230.586 389.899C234.846 399.104 242.458 406.332 251.865 410.107C252.142 409.628 252.448 409.166 252.78 408.723Z" fill="white"/>
<path opacity="0.2" d="M267.355 324.62C269.722 324.62 271.641 322.7 271.641 320.33C271.641 317.961 269.722 316.04 267.355 316.04C264.988 316.04 263.07 317.961 263.07 320.33C263.07 322.7 264.988 324.62 267.355 324.62Z" fill="black"/>
<path opacity="0.2" d="M291.727 332.825C294.094 332.825 296.013 330.905 296.013 328.535C296.013 326.166 294.094 324.245 291.727 324.245C289.36 324.245 287.441 326.166 287.441 328.535C287.441 330.905 289.36 332.825 291.727 332.825Z" fill="black"/>
<path d="M278.153 342.107C279.285 338.74 278.384 335.398 276.14 334.642C273.897 333.887 271.161 336.003 270.029 339.37C268.897 342.737 269.798 346.078 272.042 346.834C274.285 347.59 277.021 345.473 278.153 342.107Z" fill="#E0E0E0"/>
<path d="M364.249 327.711C367.798 327.711 370.674 324.832 370.674 321.28C370.674 317.727 367.798 314.848 364.249 314.848C360.7 314.848 357.824 317.727 357.824 321.28C357.824 324.832 360.7 327.711 364.249 327.711Z" fill="white"/>
<path d="M384.605 314.38C386.379 314.38 387.817 312.94 387.817 311.164C387.817 309.388 386.379 307.948 384.605 307.948C382.83 307.948 381.392 309.388 381.392 311.164C381.392 312.94 382.83 314.38 384.605 314.38Z" fill="white"/>
<g opacity="0.5">
<g opacity="0.3">
<path opacity="0.3" d="M318.258 114.154L326.375 90.0405C329.166 81.6431 329.189 72.5703 326.439 64.1592C323.689 55.7482 318.312 48.444 311.102 43.3234L311.168 43.2839C307.975 41.0338 304.473 39.258 300.772 38.0118L300.661 37.9723L300.535 37.9327C296.943 36.7164 293.198 36.011 289.41 35.8371C288.07 35.7679 286.727 35.7679 285.387 35.8371C283.062 35.9589 280.752 36.2785 278.481 36.7926C277.823 36.9376 277.165 37.1024 276.566 37.2803C275.966 37.4582 275.295 37.6493 274.67 37.8536C273.419 38.2688 272.188 38.7367 270.983 39.2705C270.377 39.5341 269.778 39.8109 269.192 40.1074C267.42 40.9831 265.715 41.9875 264.09 43.1125C263.544 43.4882 263.01 43.877 262.484 44.2724C255.976 49.2261 251.105 56.0218 248.501 63.779L235.742 101.771C233.734 107.729 233.13 114.071 233.978 120.302C234.11 121.258 234.274 122.207 234.465 123.149C234.656 124.091 234.893 125.021 235.123 125.943C235.301 126.556 235.486 127.169 235.69 127.775C235.992 128.678 236.348 129.581 236.684 130.464C236.927 131.051 237.184 131.637 237.454 132.217C237.987 133.37 238.58 134.497 239.218 135.598C239.857 136.698 240.535 137.772 241.299 138.814C241.852 139.591 242.438 140.356 243.043 141.094C243.86 142.082 244.715 143.038 245.624 143.947C249.556 147.916 254.262 151.032 259.449 153.101L259.673 153.193C259.951 152.699 260.259 152.221 260.594 151.763C262.569 149.055 266.006 147.15 269.278 147.862C269.515 147.915 269.752 147.987 269.989 148.06C271.648 148.646 273.28 149.694 274.88 150.208C275.462 150.47 276.094 150.601 276.732 150.593C277.37 150.585 277.998 150.438 278.573 150.162C281.773 148.455 280.588 143.071 283.333 140.712C283.461 140.603 283.595 140.502 283.735 140.408C283.696 140.361 283.661 140.31 283.629 140.257C285.749 138.939 288.685 139.815 291.128 140.665C293.761 141.595 297.198 142.221 299.028 140.066C300.266 138.59 300.173 136.342 301.352 134.794C302.721 133.014 305.302 132.817 307.534 133.133H307.645C311.925 134.899 316.599 131.967 316.27 127.347C315.881 121.218 317.817 115.412 318.258 114.154Z" fill="url(#paint2_linear_525_7616)"/>
</g>
<path opacity="0.5" d="M261.338 149.733C263.261 147.097 266.559 145.252 269.719 145.97C272.879 146.689 275.874 149.7 278.685 148.191C282.53 146.135 279.804 138.576 286.045 138.016C287.346 137.93 288.648 138.156 289.844 138.675C292.477 139.749 296.598 140.962 298.626 138.543C299.818 137.12 299.732 134.952 300.871 133.475C302.188 131.762 304.696 131.545 306.836 131.874L306.941 131.907C311.069 133.614 315.585 130.78 315.262 126.325C314.847 120.394 316.73 114.806 317.138 113.593L324.959 90.3236C328.286 80.3481 327.532 69.46 322.863 60.0391C318.194 50.6182 309.989 43.4308 300.042 40.0478C290.077 36.7221 279.203 37.4795 269.795 42.1545C260.386 46.8295 253.209 55.0421 249.83 64.9979L237.5 101.593C234.295 111.217 234.883 121.703 239.144 130.908C243.405 140.113 251.016 147.342 260.423 151.117C260.701 150.638 261.006 150.176 261.338 149.733Z" fill="white"/>
<path opacity="0.2" d="M275.914 65.6311C278.281 65.6311 280.2 63.7103 280.2 61.3409C280.2 58.9715 278.281 57.0508 275.914 57.0508C273.547 57.0508 271.628 58.9715 271.628 61.3409C271.628 63.7103 273.547 65.6311 275.914 65.6311Z" fill="black"/>
<path opacity="0.2" d="M300.285 73.8352C302.652 73.8352 304.571 71.9144 304.571 69.545C304.571 67.1756 302.652 65.2549 300.285 65.2549C297.918 65.2549 296 67.1756 296 69.545C296 71.9144 297.918 73.8352 300.285 73.8352Z" fill="black"/>
</g>
<path opacity="0.1" d="M375.434 65.5254C376.658 70.2606 377.275 75.1324 377.271 80.0236C377.271 120.401 335.065 153.134 282.997 153.134C240.383 153.108 204.379 131.189 192.733 101.112C201.384 134.57 239.475 159.764 285.17 159.764C337.237 159.764 379.45 127.031 379.45 86.6532C379.436 79.4218 378.074 72.2564 375.434 65.5254Z" fill="black"/>
<g opacity="0.8">
<path opacity="0.8" d="M284.9 170.083C392.587 170.083 479.885 147.244 479.885 119.069C479.885 90.8953 392.587 68.0557 284.9 68.0557C177.213 68.0557 89.9149 90.8953 89.9149 119.069C89.9149 147.244 177.213 170.083 284.9 170.083Z" fill="url(#paint3_linear_525_7616)"/>
</g>
<path d="M284.9 69.7432C180.765 69.7432 96.3401 91.8265 96.3401 119.077H473.46C473.46 91.8265 389.035 69.7432 284.9 69.7432Z" fill="white"/>
<path d="M284.9 168.403C389.035 168.403 473.46 146.32 473.46 119.076H96.3401C96.3401 146.32 180.765 168.403 284.9 168.403Z" fill="white"/>
<path opacity="0.05" d="M284.9 168.403C389.035 168.403 473.46 146.32 473.46 119.076H96.3401C96.3401 146.32 180.765 168.403 284.9 168.403Z" fill="black"/>
<path opacity="0.05" d="M363.558 106.199H206.242C199.981 106.199 194.906 111.28 194.906 117.547V120.592C194.906 126.859 199.981 131.94 206.242 131.94H363.558C369.819 131.94 374.894 126.859 374.894 120.592V117.547C374.894 111.28 369.819 106.199 363.558 106.199Z" fill="black"/>
<path opacity="0.5" d="M88.6443 38.0972C88.1004 37.8596 87.6625 37.4304 87.4137 36.891C87.1649 36.3517 87.1226 35.7397 87.2947 35.1712C87.3223 35.0834 87.34 34.9927 87.3474 34.901C87.3642 34.6402 87.2963 34.3809 87.154 34.1618C87.0116 33.9427 86.8024 33.7756 86.5574 33.6852C86.3125 33.5948 86.0449 33.5861 85.7946 33.6603C85.5443 33.7345 85.3246 33.8876 85.1683 34.097C85.1155 34.1708 85.0714 34.2504 85.0366 34.3342C84.8004 34.8796 84.3718 35.3189 83.8326 35.5681C83.2935 35.8173 82.6815 35.859 82.1136 35.6852C82.0257 35.6582 81.9352 35.6406 81.8437 35.6325C81.5831 35.6156 81.3242 35.6835 81.1053 35.826C80.8864 35.9685 80.7194 36.178 80.6291 36.4232C80.5388 36.6684 80.5301 36.9362 80.6042 37.1868C80.6784 37.4374 80.8314 37.6573 81.0405 37.8138C81.1132 37.8699 81.1929 37.9165 81.2775 37.9522C81.8214 38.1898 82.2593 38.619 82.5081 39.1583C82.7568 39.6976 82.7992 40.3096 82.6271 40.8782C82.6001 40.9639 82.5824 41.0523 82.5744 41.1418C82.556 41.4032 82.6227 41.6635 82.7645 41.8838C82.9062 42.104 83.1155 42.2724 83.3608 42.3637C83.6062 42.455 83.8745 42.4642 84.1256 42.3901C84.3766 42.3159 84.5969 42.1623 84.7535 41.9523C84.8076 41.877 84.8519 41.7951 84.8852 41.7085C85.1272 41.1691 85.5583 40.7372 86.0968 40.4943C86.6354 40.2515 87.2442 40.2145 87.8082 40.3905C87.8961 40.4175 87.9865 40.4351 88.0781 40.4432C88.3386 40.46 88.5976 40.3922 88.8165 40.2497C89.0353 40.1072 89.2023 39.8977 89.2926 39.6525C89.3829 39.4073 89.3917 39.1394 89.3175 38.8889C89.2434 38.6383 89.0904 38.4184 88.8813 38.2619C88.8101 38.1965 88.7304 38.1411 88.6443 38.0972Z" fill="#4D8AF0"/>
<path opacity="0.5" d="M423.736 239.753C423.198 239.51 422.767 239.078 422.525 238.54C422.283 238.001 422.245 237.392 422.419 236.827C422.447 236.74 422.465 236.649 422.472 236.557C422.489 236.296 422.421 236.037 422.279 235.818C422.136 235.599 421.927 235.432 421.682 235.341C421.437 235.251 421.17 235.242 420.919 235.317C420.669 235.391 420.449 235.544 420.293 235.753C420.24 235.827 420.196 235.907 420.161 235.99C419.925 236.536 419.496 236.975 418.957 237.224C418.418 237.474 417.806 237.515 417.238 237.341C417.15 237.314 417.06 237.297 416.968 237.289C416.708 237.272 416.449 237.34 416.23 237.482C416.011 237.625 415.844 237.834 415.754 238.079C415.663 238.325 415.655 238.592 415.729 238.843C415.803 239.094 415.956 239.314 416.165 239.47C416.238 239.526 416.318 239.573 416.402 239.608C416.94 239.852 417.371 240.283 417.613 240.822C417.856 241.361 417.893 241.97 417.719 242.534C417.692 242.62 417.674 242.709 417.666 242.798C417.648 243.059 417.714 243.32 417.856 243.54C417.998 243.76 418.207 243.929 418.453 244.02C418.698 244.111 418.966 244.12 419.217 244.046C419.468 243.972 419.689 243.819 419.845 243.609C419.899 243.533 419.944 243.451 419.977 243.365C420.219 242.825 420.65 242.393 421.189 242.151C421.727 241.908 422.336 241.871 422.9 242.047C422.988 242.074 423.078 242.091 423.17 242.099C423.43 242.116 423.689 242.048 423.908 241.906C424.127 241.763 424.294 241.554 424.384 241.309C424.475 241.064 424.483 240.796 424.409 240.545C424.335 240.295 424.182 240.075 423.973 239.918C423.902 239.853 423.822 239.797 423.736 239.753Z" fill="#4D8AF0"/>
<path opacity="0.5" d="M53.7526 333.333C53.2087 333.095 52.7708 332.666 52.5221 332.126C52.2733 331.587 52.2309 330.975 52.403 330.407C52.4306 330.319 52.4483 330.228 52.4557 330.136C52.4725 329.876 52.4047 329.616 52.2623 329.397C52.12 329.178 51.9107 329.011 51.6658 328.921C51.4208 328.83 51.1532 328.821 50.9029 328.896C50.6526 328.97 50.4329 329.123 50.2766 329.332C50.2239 329.406 50.1797 329.486 50.1449 329.57C49.9087 330.115 49.4801 330.554 48.941 330.803C48.4018 331.053 47.7899 331.094 47.2219 330.921C47.134 330.894 47.0436 330.876 46.952 330.868C46.6915 330.851 46.4325 330.919 46.2136 331.061C45.9948 331.204 45.8278 331.413 45.7375 331.659C45.6472 331.904 45.6384 332.172 45.7126 332.422C45.7867 332.673 45.9397 332.893 46.1488 333.049C46.2216 333.105 46.3012 333.152 46.3858 333.187C46.9298 333.425 47.3676 333.854 47.6164 334.394C47.8652 334.933 47.9075 335.545 47.7354 336.113C47.7084 336.199 47.6908 336.288 47.6828 336.377C47.6644 336.639 47.731 336.899 47.8728 337.119C48.0145 337.339 48.2238 337.508 48.4692 337.599C48.7145 337.69 48.9828 337.7 49.2339 337.625C49.485 337.551 49.7053 337.398 49.8618 337.188C49.9159 337.112 49.9602 337.03 49.9935 336.944C50.2355 336.404 50.6666 335.973 51.2052 335.73C51.7438 335.487 52.3526 335.45 52.9165 335.626C53.0044 335.653 53.0949 335.67 53.1864 335.679C53.447 335.695 53.7059 335.628 53.9248 335.485C54.1437 335.343 54.3107 335.133 54.401 334.888C54.4913 334.643 54.5 334.375 54.4259 334.124C54.3517 333.874 54.1987 333.654 53.9896 333.497C53.9184 333.432 53.8387 333.376 53.7526 333.333Z" fill="#4D8AF0"/>
<path opacity="0.5" d="M17.5443 115.202C17.0064 114.958 16.5758 114.527 16.3334 113.988C16.0909 113.449 16.0533 112.84 16.2277 112.276C16.2553 112.188 16.273 112.097 16.2803 112.005C16.2971 111.745 16.2293 111.485 16.087 111.266C15.9446 111.047 15.7354 110.88 15.4904 110.79C15.2455 110.699 14.9779 110.691 14.7276 110.765C14.4772 110.839 14.2576 110.992 14.1012 111.201C14.0485 111.275 14.0044 111.355 13.9696 111.439C13.7334 111.984 13.3048 112.423 12.7656 112.673C12.2265 112.922 11.6145 112.963 11.0466 112.79C10.9587 112.763 10.8682 112.745 10.7767 112.737C10.5161 112.72 10.2571 112.788 10.0383 112.931C9.81942 113.073 9.6524 113.282 9.56211 113.528C9.47182 113.773 9.4631 114.041 9.53723 114.291C9.61136 114.542 9.76438 114.762 9.9735 114.918C10.0462 114.974 10.1259 115.021 10.2105 115.057C10.7544 115.294 11.1923 115.723 11.4411 116.263C11.6898 116.802 11.7322 117.414 11.5601 117.983C11.5331 118.068 11.5154 118.157 11.5074 118.246C11.489 118.508 11.5557 118.768 11.6974 118.988C11.8392 119.209 12.0484 119.377 12.2938 119.468C12.5392 119.559 12.8075 119.569 13.0585 119.495C13.3096 119.42 13.5299 119.267 13.6865 119.057C13.7406 118.982 13.7848 118.9 13.8182 118.813C14.0602 118.274 14.4912 117.842 15.0298 117.599C15.5684 117.356 16.1772 117.319 16.7412 117.495C16.829 117.522 16.9195 117.54 17.0111 117.548C17.2716 117.565 17.5306 117.497 17.7495 117.354C17.9683 117.212 18.1353 117.002 18.2256 116.757C18.3159 116.512 18.3246 116.244 18.2505 115.993C18.1764 115.743 18.0234 115.523 17.8142 115.366C17.733 115.298 17.642 115.243 17.5443 115.202Z" fill="#4D8AF0"/>
<path opacity="0.5" d="M417.153 4.48778C416.615 4.24437 416.184 3.81274 415.942 3.27397C415.699 2.73519 415.662 2.12635 415.836 1.56179C415.864 1.47399 415.881 1.38335 415.889 1.29159C415.905 1.03079 415.838 0.771537 415.695 0.552452C415.553 0.333368 415.344 0.16618 415.099 0.0757985C414.854 -0.0145833 414.586 -0.0233211 414.336 0.0508856C414.085 0.125092 413.866 0.278271 413.71 0.487603C413.657 0.561443 413.613 0.641034 413.578 0.724847C413.336 1.26425 412.905 1.6962 412.366 1.93905C411.828 2.18191 411.219 2.21884 410.655 2.04286C410.567 2.01591 410.477 1.99823 410.385 1.99014C410.101 1.93055 409.805 1.97484 409.552 2.11494C409.298 2.25505 409.102 2.48169 409.001 2.75368C408.9 3.02568 408.9 3.32499 409 3.59724C409.101 3.86949 409.295 4.09662 409.549 4.23736C409.622 4.29351 409.701 4.34003 409.786 4.37575C410.324 4.61916 410.754 5.05079 410.997 5.58957C411.239 6.12834 411.277 6.73719 411.103 7.30175C411.076 7.38746 411.058 7.47584 411.05 7.56535C411.022 7.83672 411.086 8.10954 411.233 8.33975C411.379 8.56995 411.598 8.74407 411.856 8.83399C412.113 8.9239 412.393 8.92435 412.65 8.83525C412.908 8.74615 413.128 8.57272 413.275 8.34298C413.329 8.26766 413.373 8.18572 413.407 8.09915C413.649 7.55975 414.08 7.1278 414.618 6.88494C415.157 6.64209 415.766 6.60516 416.33 6.78113C416.418 6.80809 416.508 6.82576 416.6 6.83385C416.86 6.85067 417.119 6.78278 417.338 6.6403C417.557 6.49781 417.724 6.28836 417.814 6.04315C417.904 5.79793 417.913 5.53008 417.839 5.27949C417.765 5.0289 417.612 4.809 417.403 4.65253C417.328 4.58611 417.243 4.53065 417.153 4.48778Z" fill="#4D8AF0"/>
<g opacity="0.5">
<path opacity="0.5" d="M74.8917 169.925H72.9167V181.128H74.8917V169.925Z" fill="#47E6B1"/>
<path opacity="0.5" d="M79.5 176.515V174.538H68.3083V176.515H79.5Z" fill="#47E6B1"/>
</g>
<g opacity="0.5">
<path opacity="0.5" d="M548.892 117.204H546.917V128.407H548.892V117.204Z" fill="#47E6B1"/>
<path opacity="0.5" d="M553.5 123.794V121.817H542.308V123.794H553.5Z" fill="#47E6B1"/>
</g>
<g opacity="0.5">
<path opacity="0.5" d="M483.058 301.067H481.083V312.271H483.058V301.067Z" fill="#47E6B1"/>
<path opacity="0.5" d="M487.667 307.658V305.681H476.475V307.658H487.667Z" fill="#47E6B1"/>
</g>
<path opacity="0.5" d="M476.475 57.8934C478.657 57.8934 480.425 56.1232 480.425 53.9394C480.425 51.7556 478.657 49.9854 476.475 49.9854C474.294 49.9854 472.525 51.7556 472.525 53.9394C472.525 56.1232 474.294 57.8934 476.475 57.8934Z" fill="#F55F44"/>
<path opacity="0.5" d="M4.45 12.4227C6.63153 12.4227 8.4 10.6525 8.4 8.4687C8.4 6.28494 6.63153 4.51465 4.45 4.51465C2.26848 4.51465 0.5 6.28494 0.5 8.4687C0.5 10.6525 2.26848 12.4227 4.45 12.4227Z" fill="#F55F44"/>
<path opacity="0.5" d="M122.95 239.78C125.132 239.78 126.9 238.01 126.9 235.826C126.9 233.642 125.132 231.872 122.95 231.872C120.768 231.872 119 233.642 119 235.826C119 238.01 120.768 239.78 122.95 239.78Z" fill="#F55F44"/>
<path opacity="0.05" d="M154.55 106.383C166.912 106.383 176.933 104.318 176.933 101.77C176.933 99.2226 166.912 97.1572 154.55 97.1572C142.188 97.1572 132.167 99.2226 132.167 101.77C132.167 104.318 142.188 106.383 154.55 106.383Z" fill="black"/>
<path opacity="0.05" d="M154.55 141.311C166.912 141.311 176.933 139.246 176.933 136.698C176.933 134.15 166.912 132.085 154.55 132.085C142.188 132.085 132.167 134.15 132.167 136.698C132.167 139.246 142.188 141.311 154.55 141.311Z" fill="black"/>
<path opacity="0.05" d="M409.325 106.383C421.687 106.383 431.708 104.318 431.708 101.77C431.708 99.2226 421.687 97.1572 409.325 97.1572C396.963 97.1572 386.942 99.2226 386.942 101.77C386.942 104.318 396.963 106.383 409.325 106.383Z" fill="black"/>
<path opacity="0.05" d="M409.325 141.311C421.687 141.311 431.708 139.246 431.708 136.698C431.708 134.15 421.687 132.085 409.325 132.085C396.963 132.085 386.942 134.15 386.942 136.698C386.942 139.246 396.963 141.311 409.325 141.311Z" fill="black"/>
<path opacity="0.05" d="M284.9 86.6138C297.262 86.6138 307.283 84.5485 307.283 82.0008C307.283 79.453 297.262 77.3877 284.9 77.3877C272.538 77.3877 262.517 79.453 262.517 82.0008C262.517 84.5485 272.538 86.6138 284.9 86.6138Z" fill="black"/>
<path opacity="0.05" d="M301.358 38.5054C313.72 38.5054 323.742 36.4401 323.742 33.8924C323.742 31.3446 313.72 29.2793 301.358 29.2793C288.996 29.2793 278.975 31.3446 278.975 33.8924C278.975 36.4401 288.996 38.5054 301.358 38.5054Z" fill="black"/>
<path opacity="0.05" d="M258.567 58.2759C270.929 58.2759 280.95 56.2106 280.95 53.6629C280.95 51.1151 270.929 49.0498 258.567 49.0498C246.205 49.0498 236.183 51.1151 236.183 53.6629C236.183 56.2106 246.205 58.2759 258.567 58.2759Z" fill="black"/>
<path opacity="0.05" d="M340.858 66.8433C353.22 66.8433 363.242 64.778 363.242 62.2302C363.242 59.6825 353.22 57.6172 340.858 57.6172C328.496 57.6172 318.475 59.6825 318.475 62.2302C318.475 64.778 328.496 66.8433 340.858 66.8433Z" fill="black"/>
<path opacity="0.05" d="M284.9 155.15C297.262 155.15 307.283 153.085 307.283 150.537C307.283 147.989 297.262 145.924 284.9 145.924C272.538 145.924 262.517 147.989 262.517 150.537C262.517 153.085 272.538 155.15 284.9 155.15Z" fill="black"/>
</g>
<defs>
<linearGradient id="paint0_linear_525_7616" x1="284.9" y1="161.971" x2="284.9" y2="12.4219" gradientUnits="userSpaceOnUse">
<stop stop-color="#808080" stop-opacity="0.25"/>
<stop offset="0.54" stop-color="#808080" stop-opacity="0.12"/>
<stop offset="1" stop-color="#808080" stop-opacity="0.1"/>
</linearGradient>
<linearGradient id="paint1_linear_525_7616" x1="-31006" y1="226868" x2="-24033.6" y2="206189" gradientUnits="userSpaceOnUse">
<stop stop-color="#808080" stop-opacity="0.25"/>
<stop offset="0.54" stop-color="#808080" stop-opacity="0.12"/>
<stop offset="1" stop-color="#808080" stop-opacity="0.1"/>
</linearGradient>
<linearGradient id="paint2_linear_525_7616" x1="-26964.7" y1="181181" x2="-19992.3" y2="160503" gradientUnits="userSpaceOnUse">
<stop stop-color="#808080" stop-opacity="0.25"/>
<stop offset="0.54" stop-color="#808080" stop-opacity="0.12"/>
<stop offset="1" stop-color="#808080" stop-opacity="0.1"/>
</linearGradient>
<linearGradient id="paint3_linear_525_7616" x1="168557" y1="26400.4" x2="168557" y2="10604.4" gradientUnits="userSpaceOnUse">
<stop stop-color="#808080" stop-opacity="0.25"/>
<stop offset="0.54" stop-color="#808080" stop-opacity="0.12"/>
<stop offset="1" stop-color="#808080" stop-opacity="0.1"/>
</linearGradient>
<clipPath id="clip0_525_7616">
<rect width="553" height="479" fill="white" transform="translate(0.5)"/>
</clipPath>
</defs>
</svg>
